<svg width="1500" height="600" viewBox="0 0 1500 600" fill="none" xmlns="http://www.w3.org/2000/svg">
<rect width="1500" height="600" fill="black"/>
<rect x="205" y="176" width="248" height="248" fill="black" stroke="white" stroke-width="10"/>
<path d="M303.856 371.582H253.994V360.78H294.717H297.794L299.181 358.033L359.432 238.621H409.293V249.423H368.64H365.564L364.177 252.169L303.856 371.582ZM352.42 371.582V360.78H409.293V371.582H352.42Z" fill="white" stroke="white" stroke-width="10"/>
<path d="M602.24 279.8C598.293 279.8 594.907 279.16 592.08 277.88C589.253 276.547 587.067 274.68 585.52 272.28C583.973 269.827 583.2 266.92 583.2 263.56H591.76C591.76 266.227 592.693 268.333 594.56 269.88C596.427 271.373 599.013 272.12 602.32 272.12C605.413 272.12 607.84 271.373 609.6 269.88C611.36 268.387 612.24 266.333 612.24 263.72C612.24 261.533 611.627 259.64 610.4 258.04C609.227 256.44 607.52 255.347 605.28 254.76L597.92 252.6C593.653 251.373 590.347 249.293 588 246.36C585.707 243.373 584.56 239.827 584.56 235.72C584.56 232.52 585.28 229.72 586.72 227.32C588.16 224.92 590.213 223.053 592.88 221.72C595.547 220.387 598.693 219.72 602.32 219.72C607.653 219.72 611.92 221.16 615.12 224.04C618.373 226.92 620.027 230.787 620.08 235.64H611.44C611.44 233.08 610.613 231.08 608.96 229.64C607.36 228.147 605.093 227.4 602.16 227.4C599.333 227.4 597.12 228.093 595.52 229.48C593.92 230.813 593.12 232.707 593.12 235.16C593.12 237.347 593.707 239.24 594.88 240.84C596.107 242.44 597.84 243.56 600.08 244.2L607.52 246.44C611.787 247.613 615.067 249.693 617.36 252.68C619.653 255.667 620.8 259.24 620.8 263.4C620.8 266.653 620.027 269.533 618.48 272.04C616.933 274.493 614.773 276.413 612 277.8C609.227 279.133 605.973 279.8 602.24 279.8ZM649.969 279.72C646.342 279.72 643.195 279.027 640.529 277.64C637.862 276.253 635.809 274.28 634.369 271.72C632.929 269.16 632.209 266.147 632.209 262.68V251.32C632.209 247.8 632.929 244.787 634.369 242.28C635.809 239.72 637.862 237.747 640.529 236.36C643.195 234.973 646.342 234.28 649.969 234.28C653.595 234.28 656.742 234.973 659.409 236.36C662.075 237.747 664.129 239.72 665.569 242.28C667.009 244.787 667.729 247.8 667.729 251.32V262.68C667.729 266.147 667.009 269.16 665.569 271.72C664.129 274.28 662.075 276.253 659.409 277.64C656.742 279.027 653.595 279.72 649.969 279.72ZM649.969 272.12C652.902 272.12 655.169 271.32 656.769 269.72C658.369 268.067 659.169 265.72 659.169 262.68V251.32C659.169 248.227 658.369 245.88 656.769 244.28C655.169 242.68 652.902 241.88 649.969 241.88C647.089 241.88 644.822 242.68 643.169 244.28C641.569 245.88 640.769 248.227 640.769 251.32V262.68C640.769 265.72 641.569 268.067 643.169 269.72C644.822 271.32 647.089 272.12 649.969 272.12ZM690.978 279V247.48H678.498V239.64H690.978V232.52C690.978 228.84 692.151 225.933 694.497 223.8C696.844 221.667 700.044 220.6 704.098 220.6H716.978V228.28H704.258C702.764 228.28 701.591 228.653 700.738 229.4C699.938 230.147 699.538 231.213 699.538 232.6V239.64H716.978V247.48H699.538V279H690.978ZM750.706 279C746.706 279 743.586 277.907 741.346 275.72C739.106 273.533 737.986 270.493 737.986 266.6V242.84H725.826V235H737.986V222.6H746.626V235H763.826V242.84H746.626V266.6C746.626 269.64 748.093 271.16 751.026 271.16H763.026V279H750.706ZM778.915 279L772.115 235H779.395L783.475 264.04C783.688 265.373 783.875 266.867 784.035 268.52C784.248 270.12 784.408 271.453 784.515 272.52C784.622 271.453 784.782 270.12 784.995 268.52C785.262 266.92 785.502 265.427 785.715 264.04L790.275 235H797.555L802.035 264.04C802.248 265.427 802.462 266.947 802.675 268.6C802.942 270.2 803.128 271.533 803.235 272.6C803.342 271.48 803.502 270.12 803.715 268.52C803.982 266.867 804.222 265.373 804.435 264.04L808.595 235H815.635L808.595 279H799.475L795.155 250.28C794.942 248.787 794.702 247.213 794.435 245.56C794.168 243.853 793.982 242.493 793.875 241.48C793.715 242.493 793.502 243.853 793.235 245.56C793.022 247.213 792.808 248.787 792.595 250.28L788.115 279H778.915ZM837.444 279.8C832.857 279.8 829.23 278.627 826.564 276.28C823.95 273.88 822.644 270.627 822.644 266.52C822.644 262.36 824.03 259.107 826.804 256.76C829.63 254.36 833.497 253.16 838.404 253.16H850.644V249.08C850.644 246.68 849.897 244.813 848.404 243.48C846.91 242.147 844.804 241.48 842.084 241.48C839.684 241.48 837.684 242.013 836.084 243.08C834.484 244.093 833.55 245.453 833.284 247.16H824.804C825.284 243.213 827.097 240.067 830.244 237.72C833.444 235.373 837.47 234.2 842.324 234.2C847.55 234.2 851.684 235.533 854.724 238.2C857.764 240.813 859.284 244.387 859.284 248.92V279H850.884V270.92H849.444L850.884 269.32C850.884 272.52 849.657 275.08 847.204 277C844.75 278.867 841.497 279.8 837.444 279.8ZM840.004 273.16C843.097 273.16 845.63 272.387 847.604 270.84C849.63 269.24 850.644 267.213 850.644 264.76V259H838.564C836.324 259 834.537 259.613 833.204 260.84C831.924 262.067 831.284 263.747 831.284 265.88C831.284 268.12 832.057 269.907 833.604 271.24C835.15 272.52 837.284 273.16 840.004 273.16ZM873.973 279V235H882.293V243.4H884.373L881.733 248.6C881.733 243.853 882.773 240.28 884.853 237.88C886.933 235.427 890.026 234.2 894.133 234.2C898.826 234.2 902.533 235.667 905.253 238.6C908.026 241.48 909.413 245.453 909.413 250.52V253.48H900.533V251.24C900.533 248.093 899.733 245.693 898.133 244.04C896.586 242.333 894.399 241.48 891.573 241.48C888.746 241.48 886.533 242.333 884.933 244.04C883.386 245.747 882.613 248.147 882.613 251.24V279H873.973ZM937.781 279.8C934.208 279.8 931.061 279.107 928.341 277.72C925.675 276.28 923.621 274.28 922.181 271.72C920.741 269.16 920.021 266.173 920.021 262.76V251.24C920.021 247.773 920.741 244.787 922.181 242.28C923.621 239.72 925.675 237.747 928.341 236.36C931.061 234.92 934.208 234.2 937.781 234.2C941.408 234.2 944.555 234.92 947.221 236.36C949.888 237.747 951.941 239.72 953.381 242.28C954.821 244.787 955.541 247.773 955.541 251.24V259.08H928.341V262.76C928.341 266.013 929.141 268.493 930.741 270.2C932.395 271.907 934.768 272.76 937.861 272.76C940.368 272.76 942.395 272.333 943.941 271.48C945.488 270.573 946.448 269.267 946.821 267.56H955.381C954.741 271.293 952.821 274.28 949.621 276.52C946.421 278.707 942.475 279.8 937.781 279.8ZM947.221 253.88V251.16C947.221 247.96 946.421 245.48 944.821 243.72C943.221 241.96 940.875 241.08 937.781 241.08C934.741 241.08 932.395 241.96 930.741 243.72C929.141 245.48 928.341 247.987 928.341 251.24V253.24L947.861 253.16L947.221 253.88ZM585.52 385V326.6H619.84V334.28H594V350.84H617.04V358.44H594V377.32H619.84V385H585.52ZM632.689 385V341H641.249V349.4H643.329L641.249 351.4C641.249 347.88 642.289 345.133 644.369 343.16C646.449 341.187 649.329 340.2 653.009 340.2C657.382 340.2 660.875 341.613 663.489 344.44C666.102 347.213 667.409 350.973 667.409 355.72V385H658.769V356.68C658.769 353.8 657.995 351.587 656.449 350.04C654.902 348.493 652.795 347.72 650.129 347.72C647.409 347.72 645.249 348.547 643.649 350.2C642.102 351.8 641.329 354.147 641.329 357.24V385H632.689ZM686.418 399.4V391.96H699.938C702.178 391.96 703.831 391.427 704.898 390.36C706.018 389.293 706.578 387.72 706.578 385.64V381.24L706.738 373.08H704.898L706.658 371.48C706.658 374.84 705.591 377.48 703.458 379.4C701.378 381.32 698.551 382.28 694.978 382.28C690.444 382.28 686.871 380.787 684.258 377.8C681.644 374.813 680.338 370.787 680.338 365.72V356.76C680.338 351.693 681.644 347.667 684.258 344.68C686.871 341.693 690.444 340.2 694.978 340.2C698.551 340.2 701.378 341.187 703.458 343.16C705.591 345.08 706.658 347.72 706.658 351.08L704.898 349.4H706.658L706.578 341H715.138V385.8C715.138 390.013 713.804 393.32 711.138 395.72C708.471 398.173 704.764 399.4 700.018 399.4H686.418ZM697.778 374.84C700.498 374.84 702.631 374.013 704.178 372.36C705.778 370.653 706.578 368.307 706.578 365.32V357.24C706.578 354.253 705.778 351.933 704.178 350.28C702.631 348.573 700.498 347.72 697.778 347.72C694.951 347.72 692.764 348.547 691.218 350.2C689.724 351.8 688.978 354.147 688.978 357.24V365.32C688.978 368.36 689.724 370.707 691.218 372.36C692.764 374.013 694.951 374.84 697.778 374.84ZM728.386 385V377.16H743.826V348.84H730.386V341H752.226V377.16H766.386V385H728.386ZM747.186 333.4C745.32 333.4 743.826 332.92 742.706 331.96C741.586 330.947 741.026 329.613 741.026 327.96C741.026 326.253 741.586 324.92 742.706 323.96C743.826 322.947 745.32 322.44 747.186 322.44C749.053 322.44 750.546 322.947 751.666 323.96C752.786 324.92 753.346 326.253 753.346 327.96C753.346 329.613 752.786 330.947 751.666 331.96C750.546 332.92 749.053 333.4 747.186 333.4ZM776.595 385V341H785.155V349.4H787.235L785.155 351.4C785.155 347.88 786.195 345.133 788.275 343.16C790.355 341.187 793.235 340.2 796.915 340.2C801.288 340.2 804.782 341.613 807.395 344.44C810.008 347.213 811.315 350.973 811.315 355.72V385H802.675V356.68C802.675 353.8 801.902 351.587 800.355 350.04C798.808 348.493 796.702 347.72 794.035 347.72C791.315 347.72 789.155 348.547 787.555 350.2C786.008 351.8 785.235 354.147 785.235 357.24V385H776.595ZM841.844 385.8C838.27 385.8 835.124 385.107 832.404 383.72C829.737 382.28 827.684 380.28 826.244 377.72C824.804 375.16 824.084 372.173 824.084 368.76V357.24C824.084 353.773 824.804 350.787 826.244 348.28C827.684 345.72 829.737 343.747 832.404 342.36C835.124 340.92 838.27 340.2 841.844 340.2C845.47 340.2 848.617 340.92 851.284 342.36C853.95 343.747 856.004 345.72 857.444 348.28C858.884 350.787 859.604 353.773 859.604 357.24V365.08H832.404V368.76C832.404 372.013 833.204 374.493 834.804 376.2C836.457 377.907 838.83 378.76 841.924 378.76C844.43 378.76 846.457 378.333 848.004 377.48C849.55 376.573 850.51 375.267 850.884 373.56H859.444C858.804 377.293 856.884 380.28 853.684 382.52C850.484 384.707 846.537 385.8 841.844 385.8ZM851.284 359.88V357.16C851.284 353.96 850.484 351.48 848.884 349.72C847.284 347.96 844.937 347.08 841.844 347.08C838.804 347.08 836.457 347.96 834.804 349.72C833.204 351.48 832.404 353.987 832.404 357.24V359.24L851.924 359.16L851.284 359.88ZM889.813 385.8C886.239 385.8 883.093 385.107 880.373 383.72C877.706 382.28 875.653 380.28 874.213 377.72C872.773 375.16 872.053 372.173 872.053 368.76V357.24C872.053 353.773 872.773 350.787 874.213 348.28C875.653 345.72 877.706 343.747 880.373 342.36C883.093 340.92 886.239 340.2 889.813 340.2C893.439 340.2 896.586 340.92 899.253 342.36C901.919 343.747 903.973 345.72 905.413 348.28C906.853 350.787 907.573 353.773 907.573 357.24V365.08H880.373V368.76C880.373 372.013 881.173 374.493 882.773 376.2C884.426 377.907 886.799 378.76 889.893 378.76C892.399 378.76 894.426 378.333 895.973 377.48C897.519 376.573 898.479 375.267 898.853 373.56H907.413C906.773 377.293 904.853 380.28 901.653 382.52C898.453 384.707 894.506 385.8 889.813 385.8ZM899.253 359.88V357.16C899.253 353.96 898.453 351.48 896.853 349.72C895.253 347.96 892.906 347.08 889.813 347.08C886.773 347.08 884.426 347.96 882.773 349.72C881.173 351.48 880.373 353.987 880.373 357.24V359.24L899.893 359.16L899.253 359.88ZM921.941 385V341H930.261V349.4H932.341L929.701 354.6C929.701 349.853 930.741 346.28 932.821 343.88C934.901 341.427 937.995 340.2 942.101 340.2C946.795 340.2 950.501 341.667 953.221 344.6C955.995 347.48 957.381 351.453 957.381 356.52V359.48H948.501V357.24C948.501 354.093 947.701 351.693 946.101 350.04C944.555 348.333 942.368 347.48 939.541 347.48C936.715 347.48 934.501 348.333 932.901 350.04C931.355 351.747 930.581 354.147 930.581 357.24V385H921.941ZM968.23 385V377.16H983.67V348.84H970.23V341H992.07V377.16H1006.23V385H968.23ZM987.03 333.4C985.163 333.4 983.67 332.92 982.55 331.96C981.43 330.947 980.87 329.613 980.87 327.96C980.87 326.253 981.43 324.92 982.55 323.96C983.67 322.947 985.163 322.44 987.03 322.44C988.897 322.44 990.39 322.947 991.51 323.96C992.63 324.92 993.19 326.253 993.19 327.96C993.19 329.613 992.63 330.947 991.51 331.96C990.39 332.92 988.897 333.4 987.03 333.4ZM1016.44 385V341H1025V349.4H1027.08L1025 351.4C1025 347.88 1026.04 345.133 1028.12 343.16C1030.2 341.187 1033.08 340.2 1036.76 340.2C1041.13 340.2 1044.63 341.613 1047.24 344.44C1049.85 347.213 1051.16 350.973 1051.16 355.72V385H1042.52V356.68C1042.52 353.8 1041.75 351.587 1040.2 350.04C1038.65 348.493 1036.55 347.72 1033.88 347.72C1031.16 347.72 1029 348.547 1027.4 350.2C1025.85 351.8 1025.08 354.147 1025.08 357.24V385H1016.44ZM1070.17 399.4V391.96H1083.69C1085.93 391.96 1087.58 391.427 1088.65 390.36C1089.77 389.293 1090.33 387.72 1090.33 385.64V381.24L1090.49 373.08H1088.65L1090.41 371.48C1090.41 374.84 1089.34 377.48 1087.21 379.4C1085.13 381.32 1082.3 382.28 1078.73 382.28C1074.19 382.28 1070.62 380.787 1068.01 377.8C1065.39 374.813 1064.09 370.787 1064.09 365.72V356.76C1064.09 351.693 1065.39 347.667 1068.01 344.68C1070.62 341.693 1074.19 340.2 1078.73 340.2C1082.3 340.2 1085.13 341.187 1087.21 343.16C1089.34 345.08 1090.41 347.72 1090.41 351.08L1088.65 349.4H1090.41L1090.33 341H1098.89V385.8C1098.89 390.013 1097.55 393.32 1094.89 395.72C1092.22 398.173 1088.51 399.4 1083.77 399.4H1070.17ZM1081.53 374.84C1084.25 374.84 1086.38 374.013 1087.93 372.36C1089.53 370.653 1090.33 368.307 1090.33 365.32V357.24C1090.33 354.253 1089.53 351.933 1087.93 350.28C1086.38 348.573 1084.25 347.72 1081.53 347.72C1078.7 347.72 1076.51 348.547 1074.97 350.2C1073.47 351.8 1072.73 354.147 1072.73 357.24V365.32C1072.73 368.36 1073.47 370.707 1074.97 372.36C1076.51 374.013 1078.7 374.84 1081.53 374.84Z" fill="white"/>
</svg>
