<svg width="326" height="173" viewBox="0 0 326 173" fill="none" xmlns="http://www.w3.org/2000/svg">
<path d="M12.8 103.728V171.44H0V81.84H11.648L57.984 149.552H58.24V81.84H71.04V171.44H59.392L13.056 103.728H12.8Z" fill="#EBEBEB"/>
<path d="M147.245 163.504L132.397 172.08H107.693L92.845 163.504V115.376L107.693 106.8H132.397L147.245 115.376V163.504ZM105.261 117.936V160.944H134.829V117.936H105.261Z" fill="#EBEBEB"/>
<path d="M203.432 118.576H180.136V171.44H167.72V107.44H177.064L180.136 112.688L189.224 107.44H203.432V118.576Z" fill="#EBEBEB"/>
<path d="M212.35 118.576V107.44H224.126V96.688L236.542 89.52V107.44H251.902V118.576H236.542V160.304H251.902V171.44H238.974L224.126 162.864V118.576H212.35Z" fill="#EBEBEB"/>
<path d="M282.261 171.44H269.845V78H282.261V112.048L291.349 106.8H310.677L325.525 115.376V171.44H313.109V117.936H282.261V171.44Z" fill="#EBEBEB"/>
<path d="M0 0V71.5H11.5V15L89.5 51V37.5L8.5 0H0Z" fill="#EBEBEB"/>
<path d="M89.5 51V37.5L208 91H179L89.5 51Z" fill="#EBEBEB"/>
</svg>
